{"asset":{"version":"2.0","generator":"Blockbench 4.5.2 glTF exporter"},"scenes":[{"nodes":[3],"name":"blockbench_export"}],"scene":0,"nodes":[{"translation":[0,0.53125,-0.15625],"name":"handle","mesh":0},{"name":"core","mesh":1},{"name":"root","children":[0,1]},{"children":[2]}],"bufferViews":[{"buffer":0,"byteOffset":0,"byteLength":2880,"target":34962,"byteStride":12},{"buffer":0,"byteOffset":2880,"byteLength":2880,"target":34962,"byteStride":12},{"buffer":0,"byteOffset":5760,"byteLength":1920,"target":34962,"byteStride":8},{"buffer":0,"byteOffset":7680,"byteLength":720,"target":34963},{"buffer":0,"byteOffset":8400,"byteLength":3744,"target":34962,"byteStride":12},{"buffer":0,"byteOffset":12144,"byteLength":3744,"target":34962,"byteStride":12},{"buffer":0,"byteOffset":15888,"byteLength":2496,"target":34962,"byteStride":8},{"buffer":0,"byteOffset":18384,"byteLength":936,"target":34963}],"buffers":[{"byteLength":19320,"uri":"data:application/octet-stream;base64,"}],"accessors":[{"bufferView":0,"componentType":5126,"count":240,"max":[0.1875,0.15625,0.34375],"min":[-0.1875,-0.03125,-0.03125],"type":"VEC3"},{"bufferView":1,"componentType":5126,"count":240,"max":[1,1,1],"min":[-1,-1,-1],"type":"VEC3"},{"bufferView":2,"componentType":5126,"count":240,"max":[0.8125,1],"min":[0,0.1875],"type":"VEC2"},{"bufferView":3,"componentType":5123,"count":360,"max":[239],"min":[0],"type":"SCALAR"},{"bufferView":4,"componentType":5126,"count":312,"max":[0.25,0.5,0.25],"min":[-0.25,0,-0.25],"type":"VEC3"},{"bufferView":5,"componentType":5126,"count":312,"max":[1,1,1],"min":[-1,-1,-1],"type":"VEC3"},{"bufferView":6,"componentType":5126,"count":312,"max":[0.8125,1],"min":[0,0],"type":"VEC2"},{"bufferView":7,"componentType":5123,"count":468,"max":[311],"min":[0],"type":"SCALAR"}],"materials":[{"pbrMetallicRoughness":{"metallicFactor":0,"roughnessFactor":1,"baseColorTexture":{"index":0}},"alphaMode":"MASK","alphaCutoff":0.05,"doubleSided":true},{"pbrMetallicRoughness":{"metallicFactor":0,"roughnessFactor":1,"baseColorTexture":{"index":1}},"alphaMode":"MASK","alphaCutoff":0.05,"doubleSided":true}],"textures":[{"sampler":0,"source":0,"name":"handle"},{"sampler":1,"source":1,"name":"core"}],"samplers":[{"magFilter":9728,"minFilter":9728,"wrapS":33071,"wrapT":33071},{"magFilter":9728,"minFilter":9728,"wrapS":33071,"wrapT":33071}],"images":[{"mimeType":"image/png","uri":"data:image/png;base64,"},{"mimeType":"image/png","uri":"data:image/png;base64,"}],"meshes":[{"primitives":[{"mode":4,"attributes":{"POSITION":0,"NORMAL":1,"TEXCOORD_0":2},"indices":3,"material":0}]},{"primitives":[{"mode":4,"attributes":{"POSITION":4,"NORMAL":5,"TEXCOORD_0":6},"indices":7,"material":1}]}]}